{"title":"Take Me Home Tonight (2011) 720p Blu-Ray x264 [Dual-Audio][Engli","uid":9411868,"size":999001053,"categoryP":"video","categoryS":"hd___movies","magnet":"?xt=urn:btih:9358cf33007f5857a23fca833d86176cebffd137&amp;dn=Take+Me+Home+Tonight+%282011%29+720p+Blu-Ray+x264+%5BDual-Audio%5D%5BEngli&amp;tr=udp%3A%2F%2Ftracker.openbittorrent.com%3A80&amp;tr=udp%3A%2F%2Fopen.demonii.com%3A1337&amp;tr=udp%3A%2F%2Ftracker.coppersurfer.tk%3A6969&amp;tr=udp%3A%2F%2Fexodus.desync.com%3A6969","seeders":0,"leechers":4,"uploader":"saurabh92","files":2,"time":1388278685,"description":"General\nUnique ID                        : 183581868975044463629802427122668043527 (0x8A1C94F57816F240BD019CB1A4D87D07)\nComplete name                    : Take Me Home Tonight (2011) 720p Blu-Ray x264 [Dual-Audio][English DD 5.1 + Hindi DD 5.1] - {TorrentM@fia}Take Me Home Tonight  720p Blu-Ray x264 [Dual-Audio][English DD 5.1 + Hindi DD 5.1] - {TorrentM@fia}.mkv\nFormat                           : Matroska\nFormat version                   : Version 4 / Version 2\nFile size                        : 943 MiB\nDuration                         : 1h 37mn\nOverall bit rate                 : 1 355 Kbps\nMovie name                       : SaMple-Take Me Home Tonight (2011) 720p Blu-Ray x264 [Dual-Audio][English DD 5.1 + Hindi DD 5.1] - {TorrentM@fia}\nEncoded date                     : UTC 2013-12-28 10:19:10\nWriting application              : mkvmerge v6.6.0 ('The Edge Of The In Between') built on Dec  1 2013 17:55:00\nWriting library                  : libebml v1.3.0 + libmatroska v1.4.1\n\nVideo\nID                               : 1\nFormat                           : AVC\nFormat/Info                      : Advanced Video Codec\nFormat profile                   : &lt;a class=&quot;__cf_email__&quot; href=&quot;/cdn-cgi/l/email-protection&quot; data-cfemail=&quot;6e260709062e225a405e&quot;&gt;[email&amp;#160;protected]&lt;/a&gt;&lt;script cf-hash='f9e31' type=&quot;text/javascript&quot;&gt;\n/* &lt;![CDATA[ */!function(){try{var t=&quot;currentScript&quot;in document?document.currentScript:function(){for(var t=document.getElementsByTagName(&quot;script&quot;),e=t.length;e--;)if(t[e].getAttribute(&quot;cf-hash&quot;))return t[e]}();if(t&amp;&amp;t.previousSibling){var e,r,n,i,c=t.previousSibling,a=c.getAttribute(&quot;data-cfemail&quot;);if(a){for(e=&quot;&quot;,r=parseInt(a.substr(0,2),16),n=2;a.length-n;n+=2)i=parseInt(a.substr(n,2),16)^r,e+=String.fromCharCode(i);e=document.createTextNode(e),c.parentNode.replaceChild(e,c)}}}catch(u){}}();/* ]]&gt; */&lt;/script&gt;\nFormat settings, CABAC           : Yes\nFormat settings, ReFrames        : 12 frames\nCodec ID                         : V_MPEG4/ISO/AVC\nDuration                         : 1h 37mn\nBit rate                         : 908 Kbps\nWidth                            : 1 280 pixels\nHeight                           : 528 pixels\nDisplay aspect ratio             : 2.40:1\nFrame rate                       : 23.976 fps\nColor space                      : YUV\nChroma subsampling               : 4:2:0\nBit depth                        : 8 bits\nScan type                        : Progressive\nBits/(Pixel*Frame)               : 0.056\nStream size                      : 613 MiB (65%)\nTitle                            : {TorrentM@fia}\nWriting library                  : x264 core 125 r2200 999b753\nEncoding settings                : cabac=1 / ref=12 / deblock=1:0:0 / analyse=0x3:0x113 / me=hex / subme=7 / psy=1 / psy_rd=1.00:0.00 / mixed_ref=1 / me_range=16 / chroma_me=1 / trellis=1 / 8x8dct=1 / cqm=0 / deadzone=21,11 / fast_pskip=1 / chroma_qp_offset=-2 / threads=3 / lookahead_threads=1 / sliced_threads=0 / nr=0 / decimate=1 / interlaced=0 / bluray_compat=0 / constrained_intra=0 / bframes=8 / b_pyramid=2 / b_adapt=1 / b_bias=0 / direct=1 / weightb=1 / open_gop=0 / weightp=2 / keyint=240 / keyint_min=23 / scenecut=40 / intra_refresh=0 / rc_lookahead=40 / rc=2pass / mbtree=1 / bitrate=908 / ratetol=1.0 / qcomp=0.60 / qpmin=0 / qpmax=69 / qpstep=4 / cplxblur=20.0 / qblur=0.5 / ip_ratio=1.40 / aq=1:1.00\nLanguage                         : English\n\nAudio #1\nID                               : 2\nFormat                           : AC-3\nFormat/Info                      : Audio Coding 3\nMode extension                   : CM (complete main)\nCodec ID                         : A_AC3\nDuration                         : 1h 37mn\nBit rate mode                    : Constant\nBit rate                         : 224 Kbps\nChannel(s)                       : 6 channels\nChannel positions                : Front: L C R, Side: L R, LFE\nSampling rate                    : 48.0 KHz\nBit depth                        : 16 bits\nCompression mode                 : Lossy\nStream size                      : 156 MiB (17%)\nTitle                            : {TorrentM@fia}\nLanguage                         : Hindi\n\nAudio #2\nID                               : 3\nFormat                           : AC-3\nFormat/Info                      : Audio Coding 3\nMode extension                   : CM (complete main)\nCodec ID                         : A_AC3\nDuration                         : 1h 37mn\nBit rate mode                    : Constant\nBit rate                         : 224 Kbps\nChannel(s)                       : 6 channels\nChannel positions                : Front: L C R, Side: L R, LFE\nSampling rate                    : 48.0 KHz\nBit depth                        : 16 bits\nCompression mode                 : Lossy\nStream size                      : 156 MiB (17%)\nTitle                            : {TorrentM@fia}\nLanguage                         : English\n\n","torrent":{"xt":"urn:btih:9358cf33007f5857a23fca833d86176cebffd137","amp;dn":"Take+Me+Home+Tonight+%282011%29+720p+Blu-Ray+x264+%5BDual-Audio%5D%5BEngli","amp;tr":["udp%3A%2F%2Ftracker.openbittorrent.com%3A80","udp%3A%2F%2Fopen.demonii.com%3A1337","udp%3A%2F%2Ftracker.coppersurfer.tk%3A6969","udp%3A%2F%2Fexodus.desync.com%3A6969"],"infoHash":"9358cf33007f5857a23fca833d86176cebffd137","infoHashBuffer":{"type":"Buffer","data":[147,88,207,51,0,127,88,87,162,63,202,131,61,134,23,108,235,255,209,55]},"announce":[],"urlList":[]}}